<svg xmlns="http://www.w3.org/2000/svg" viewBox="0 0 128 128" role="img" aria-labelledby="title desc">
  <title id="title">Cheepuru Katta broom icon</title>
  <desc id="desc">A traditional bundled stick broom, tied with rope bands, sweeping a curved trail.</desc>
  <defs>
    <linearGradient id="straw" x1="20" y1="82" x2="108" y2="42" gradientUnits="userSpaceOnUse">
      <stop offset="0" stop-color="#6f451f"/>
      <stop offset=".48" stop-color="#b37a38"/>
      <stop offset="1" stop-color="#d6b36a"/>
    </linearGradient>
    <linearGradient id="binding" x1="56" y1="56" x2="110" y2="34" gradientUnits="userSpaceOnUse">
      <stop offset="0" stop-color="#f0dc9a"/>
      <stop offset="1" stop-color="#9d712c"/>
    </linearGradient>
  </defs>
  <rect width="128" height="128" rx="30" fill="#fffaf0"/>
  <path d="M22 102c18 9 44 11 76 1" fill="none" stroke="#326b4d" stroke-width="7" stroke-linecap="round" opacity=".18"/>
  <path d="M19 109c19 5 42 4 70-4" fill="none" stroke="#326b4d" stroke-width="4" stroke-linecap="round" opacity=".35"/>

  <g transform="rotate(-18 64 64)">
    <path d="M18 91c20-23 43-35 76-49 11-5 20-3 24 3-3 8-12 14-25 17-34 9-55 21-75 29z" fill="url(#straw)"/>
    <path d="M18 91c20-23 43-35 76-49 11-5 20-3 24 3-3 8-12 14-25 17-34 9-55 21-75 29z" fill="none" stroke="#5b3517" stroke-width="2" opacity=".28"/>

    <path d="M22 90C46 70 70 54 113 43M25 93C52 76 73 60 117 48M18 86C46 78 74 57 112 40M32 96C56 78 80 63 112 58M15 82C45 74 72 52 107 38M29 87C54 73 82 55 119 51M20 95C44 82 72 66 106 57M36 91C59 75 79 64 113 61M18 78C41 75 69 55 100 38" fill="none" stroke="#3f2713" stroke-width="1.5" stroke-linecap="round" opacity=".55"/>
    <path d="M24 83C48 73 70 58 113 44M30 78C53 70 75 55 110 41M37 76C58 66 80 54 115 48M42 73C66 62 83 56 116 53M47 70C68 61 86 58 111 59" fill="none" stroke="#e0bd72" stroke-width="1.5" stroke-linecap="round" opacity=".55"/>

    <path d="M84 45c4 7 5 14 3 21" fill="none" stroke="url(#binding)" stroke-width="7" stroke-linecap="round"/>
    <path d="M96 41c4 7 5 13 3 20" fill="none" stroke="url(#binding)" stroke-width="6" stroke-linecap="round"/>
    <path d="M108 40c4 5 4 10 1 15" fill="none" stroke="url(#binding)" stroke-width="5" stroke-linecap="round"/>
    <path d="M83 47c5 5 7 11 5 18M95 43c5 5 7 10 5 17M107 41c4 4 5 8 2 14" fill="none" stroke="#6f4b1b" stroke-width="1.4" stroke-linecap="round" opacity=".5"/>
  </g>
</svg>
